<?xml version="1.0" standalone="no"?><svg xmlns="http://www.w3.org/2000/svg" viewBox="0 0 1440 320"><path fill="#004aad" fill-opacity="1" d="M0,192L12.6,213.3C25.3,235,51,277,76,256C101.1,235,126,149,152,149.3C176.8,149,202,235,227,256C252.6,277,278,235,303,197.3C328.4,160,354,128,379,101.3C404.2,75,429,53,455,69.3C480,85,505,139,531,165.3C555.8,192,581,192,606,170.7C631.6,149,657,107,682,117.3C707.4,128,733,192,758,213.3C783.2,235,808,213,834,218.7C858.9,224,884,256,909,250.7C934.7,245,960,203,985,181.3C1010.5,160,1036,160,1061,181.3C1086.3,203,1112,245,1137,234.7C1162.1,224,1187,160,1213,133.3C1237.9,107,1263,117,1288,149.3C1313.7,181,1339,235,1364,250.7C1389.5,267,1415,245,1427,234.7L1440,224L1440,320L1427.4,320C1414.7,320,1389,320,1364,320C1338.9,320,1314,320,1288,320C1263.2,320,1238,320,1213,320C1187.4,320,1162,320,1137,320C1111.6,320,1086,320,1061,320C1035.8,320,1011,320,985,320C960,320,935,320,909,320C884.2,320,859,320,834,320C808.4,320,783,320,758,320C732.6,320,707,320,682,320C656.8,320,632,320,606,320C581.1,320,556,320,531,320C505.3,320,480,320,455,320C429.5,320,404,320,379,320C353.7,320,328,320,303,320C277.9,320,253,320,227,320C202.1,320,177,320,152,320C126.3,320,101,320,76,320C50.5,320,25,320,13,320L0,320Z"></path></svg>