<?xml version="1.0" standalone="no"?><svg xmlns="http://www.w3.org/2000/svg" viewBox="0 0 1440 320"><path fill="#004aad" fill-opacity="1" d="M0,96L21.8,80C43.6,64,87,32,131,37.3C174.5,43,218,85,262,122.7C305.5,160,349,192,393,208C436.4,224,480,224,524,208C567.3,192,611,160,655,165.3C698.2,171,742,213,785,213.3C829.1,213,873,171,916,133.3C960,96,1004,64,1047,96C1090.9,128,1135,224,1178,224C1221.8,224,1265,128,1309,106.7C1352.7,85,1396,139,1418,165.3L1440,192L1440,0L1418.2,0C1396.4,0,1353,0,1309,0C1265.5,0,1222,0,1178,0C1134.5,0,1091,0,1047,0C1003.6,0,960,0,916,0C872.7,0,829,0,785,0C741.8,0,698,0,655,0C610.9,0,567,0,524,0C480,0,436,0,393,0C349.1,0,305,0,262,0C218.2,0,175,0,131,0C87.3,0,44,0,22,0L0,0Z"></path></svg>